<?xml version="1.0" encoding="utf-8"?>
<!-- Generator: Adobe Illustrator 27.8.1, SVG Export Plug-In . SVG Version: 6.00 Build 0)  -->
<svg version="1.1" id="Layer_1" xmlns="http://www.w3.org/2000/svg" xmlns:xlink="http://www.w3.org/1999/xlink" x="0px" y="0px"
	 viewBox="0 0 90 90" style="enable-background:new 0 0 90 90;" xml:space="preserve">
<path d="M69.1,19.8c-1.1-0.2-2.2-0.2-3.2,0.1c0-1.5-0.1-3-0.2-4.4v0c-0.2-2.2-1.1-4-2.7-5.4c-1.7-1.5-3.6-2.2-5.8-2
	c-1.7,0.1-3.3,0.7-4.6,1.8c-0.1-0.8-0.2-1.4-0.3-1.7l0,0c-0.9-2.3-2.4-4.1-4.5-5.3l0,0c-2.3-1.3-4.8-1.4-7.5-0.3h0
	c-2.7,1.1-4.4,3.4-5,7v0c-0.1,0.5-0.2,1.1-0.2,1.7c-0.2-0.2-0.5-0.3-0.8-0.4l0,0c-2-0.9-4-1-6.1-0.3c0,0,0,0,0,0
	c-2.1,0.7-3.6,2.1-4.6,3.9v0c-0.9,1.6-1.3,3.9-1,6.9h0c0.2,2.1,2.1,11,5.9,26.7c-0.1,0-0.2-0.1-0.2-0.1h0c-1.9-1.1-4-2-6.3-2.6l0,0
	c-2.6-0.7-5.3-0.5-8.2,0.8c-3.4,1.4-4.9,4.1-4.4,7.9v0c0.4,3.7,2.8,6.1,7.4,7.2c2.9,0.7,4.9,1.4,5.8,2.1l0,0c0.9,0.8,1.8,2,2.7,3.7
	c0,0,0,0,0,0c1.3,2.5,3.4,4.4,6.1,5.7h0c0.8,0.4,1.6,0.8,2.5,1.1c-0.9,1.4-1.3,2.5-1.2,3.6c-0.1,3.4,1.9,6.1,6,8.1l0,0
	c2.8,1.4,5.9,2.3,9.3,2.8h0c3.5,0.4,6.9,0,10.4-1.1l0,0c4.1-1.3,6.2-4.6,6.4-9.9c0-0.3,0-0.5-0.1-0.8c7.9-4.5,10.2-13.5,6.8-27
	c2.2-6.8,3.7-13.8,4.4-21v0c0.2-2-0.4-3.9-1.7-5.6C72.8,21.1,71.1,20.1,69.1,19.8z M67.1,48.6c-0.1,0.4-0.2,0.9,0,1.3
	c3.5,13.3,0.6,21.3-8.6,24.3c-0.6,0.2-1,0.5-1.3,1.1c-0.3,0.5-0.4,1.1-0.2,1.7c0.2,0.6,0.5,1,1.1,1.3c0.5,0.3,1.1,0.4,1.7,0.2
	c0.2-0.1,0.4-0.1,0.6-0.2c-0.3,2.3-1.4,3.9-3.3,4.6l0,0c-2.8,1-5.6,1.3-8.4,0.9c-2.9-0.4-5.5-1.1-7.9-2.3l0,0
	c-2.2-1.1-3.3-2.4-3.5-4c0.1-0.6,0.6-1.4,1.4-2.3c0.3,0.1,0.7,0.1,1,0.1c0.6,0.1,1.2-0.1,1.7-0.5c0.5-0.4,0.8-0.9,0.8-1.5
	c0.1-0.6-0.1-1.2-0.5-1.7c-0.4-0.5-0.9-0.8-1.5-0.8c-2.4-0.3-4.6-1-6.7-2h0c-1.9-0.9-3.3-2.2-4.2-3.9l0,0c-1.3-2.3-2.6-4-3.8-5l0,0
	c-1.2-1.1-3.7-2-7.6-3c-2.3-0.6-3.7-1.7-4-3.4v0c-0.2-1.6,0.4-2.6,1.7-3.2c1.9-0.8,3.6-1,5.3-0.6l0,0c1.9,0.5,3.6,1.2,5.2,2.1h0
	c1.9,1.1,3.6,1.8,5.1,2.1c0,0,0.1,0,0.1,0c0.1,0,0.2,0,0.3,0c0.7,0.1,2.1,0,4-0.1h0c1.5-0.1,3.5,0.4,5.8,1.4v0c2.3,1,4.1,3,5.6,5.9
	c0.3,0.6,0.7,0.9,1.3,1.1c0.6,0.2,1.2,0.2,1.7-0.1c0.6-0.3,0.9-0.7,1.1-1.3c0.2-0.6,0.2-1.2-0.1-1.7c-2-4-4.6-6.7-7.8-8.1v0
	c-3.1-1.4-5.7-2-7.8-1.8h0c-0.7,0-1.3,0.1-1.9,0.1c-4-16.8-6.1-26.3-6.3-28.5h0c-0.2-1.9,0-3.3,0.5-4.4v0c0.4-0.8,1.1-1.4,2.1-1.8
	c0,0,0,0,0,0c0.9-0.3,1.8-0.2,2.7,0.1c0,0,0,0,0,0c0.8,0.4,1.4,1,1.7,1.8l0,0c0.5,1.3,0.9,2.7,1.3,4.1c0,0,0,0.1,0,0.1
	c0.1,0.2,0.3,0.8,0.5,1.8c0,0,0,0.1,0,0.1c1.4,4.7,2.7,11,3.8,18.8c0.1,0.6,0.4,1.1,0.9,1.5c0.5,0.4,1.1,0.5,1.7,0.4
	c0.6-0.1,1.1-0.4,1.5-0.9c0.4-0.5,0.5-1.1,0.4-1.7c-1.2-8.1-2.5-14.5-3.9-19.4c-0.8-5.1-1-8.9-0.6-11.4v0c0.3-1.8,1-3,2.3-3.6h0
	c1.2-0.5,2.4-0.5,3.4,0l0,0c1.2,0.7,2,1.7,2.5,3c0.5,1.6,1.2,11.9,2.1,30.8c0,0,0,0.1,0,0.1c0,0.6,0.3,1.1,0.7,1.5
	c0.5,0.4,1,0.6,1.6,0.6c0.6,0,1.1-0.3,1.6-0.7c0.4-0.4,0.6-1,0.6-1.6c0,0,0-0.1,0-0.1c-0.2-15.2-0.4-23.2-0.4-24v0
	c-0.1-1,0.2-1.8,0.8-2.5l0,0c0.6-0.7,1.5-1.1,2.4-1.2c1-0.1,1.8,0.2,2.5,0.9c0.7,0.6,1.1,1.5,1.2,2.4c0.1,1.5,0.2,3.1,0.2,4.6
	c0,1.1,0,2.2,0,3.3c0,0.1,0,0.2,0,0.3c0,5.5-0.4,11.9-1.2,19c-0.1,0.6,0.1,1.2,0.5,1.6c0.4,0.5,0.9,0.8,1.5,0.8
	c0.6,0.1,1.2-0.1,1.6-0.5c0.5-0.4,0.8-0.9,0.8-1.5c0.8-7,1.1-13.3,1.2-18.8c0,0,0,0,0,0c0.7-0.5,1.5-0.6,2.3-0.5h0
	c0.9,0.2,1.7,0.6,2.3,1.4c0.6,0.7,0.8,1.5,0.8,2.4C70.7,35,69.3,41.9,67.1,48.6z"/>
</svg>
