<?xml version="1.0" encoding="utf-8"?>
<!-- Generator: Adobe Illustrator 27.8.1, SVG Export Plug-In . SVG Version: 6.00 Build 0)  -->
<svg version="1.1" id="Layer_1" xmlns="http://www.w3.org/2000/svg" xmlns:xlink="http://www.w3.org/1999/xlink" x="0px" y="0px"
	 viewBox="0 0 90 90" style="enable-background:new 0 0 90 90;" xml:space="preserve">
<path d="M48.9,79.9c-3.1,0-6.1-1.3-9.3-4.1c-0.2-0.2-0.5-0.5-0.7-0.7c-0.5-0.4-0.9-0.8-1.2-1.2l-0.4-0.4l-0.6,0.1
	c-1.6,0.3-3.2,0.4-4.6,0.4c-5.2,0-8.9-1.7-11.4-5.2c-1-1.3-1.8-2.7-2.3-3.7l-0.3-0.5l-0.5,0c-5.6-0.5-9-3-10.5-7.5
	c-1.4-4.5-1.9-8.8-1.4-13c0.5-4.3,1.7-8.2,3.5-11.6c2.4-4.8,5.3-7.2,9.1-7.2c0.1,0,0.3,0,0.4,0c1.2,0,2.2,0.2,3.2,0.7l1,0.5l0.4-1
	c1.9-4.6,4.2-7.9,7-9.9C34.9,11.9,39,10,42.4,10l0.3,0c5.3,0,10,2.3,14.2,6.8l1.1,1.1l0.6-0.2c3.2-1.1,6.3-1.7,9-1.7
	c4.5,0,8.5,1.5,12,4.6c3.3,2.9,4.9,5.8,4.7,8.7c0,3-1.6,5.9-4.8,8.8L79,38.5c-0.4,0.3-0.8,0.6-1.1,0.8l-0.1,0.1
	c-0.6,0.5-1.2,0.9-1.9,1.3l-0.9,0.5l0.6,0.9c1.3,2,2,3.8,1.9,5.5c0,3.3-1,5.6-3.1,7.1l-0.1,0l-0.1,0.1l-1.5,1l0.2,0.7
	c0.2,0.8,0.3,1.6,0.3,2.4c0,3.5-1.6,6.3-4.8,8.7c-2.2,1.6-4.7,2.6-7.1,2.9l-0.9,0.1v1.1c0,2.3-1,4.3-2.9,6c-1.8,1.6-4.4,2.4-8.2,2.4
	C49.1,79.9,49,79.9,48.9,79.9z M40,70.2l0.2,0.2c0.6,1,1.4,1.8,2.3,2.7c2.3,2.1,4.7,3.1,7.1,3.1c2.3-0.1,4.1-0.6,5.4-1.5l0.1,0
	l0.1,0c1-0.8,1.5-2,1.5-3.2v-0.4l-0.2-0.2c-0.1-0.1-0.1-0.2-0.3-0.4l-0.2-0.2l-0.3-0.1c-2.8-0.4-5.2-1.3-7.3-2.7
	c-1.8-1.1-3.2-2.4-4.3-3.9l-0.1-0.2l-0.2-0.1c-0.1-0.1-0.2-0.1-0.4-0.1c-0.2-0.2-0.5-0.3-0.8-0.3h-0.4L42,63
	c-0.8,0.2-1.5,0.5-1.9,1.1c-0.6,0.8-1,1.8-1,3.2C39.1,68.3,39.4,69.2,40,70.2L40,70.2z M20,55.5c0.3,0,0.6,0.1,0.9,0.2
	c0.5,0.3,0.8,0.6,0.9,1.1c0.1,0.5,0.1,0.9-0.2,1.5c-0.8,2.3,0,4.9,2.4,8.2c2.1,2.5,5.2,3.8,9.2,3.8c0.4,0,0.7,0,1.1,0l1.4-0.1
	l-0.5-1.3c-0.1-0.4-0.1-0.9-0.1-1.5c0-2.3,0.6-4.1,1.8-5.5c1.2-1.5,2.5-2.3,4-2.5l0.9-0.1v-1.9c0-2.9,1-5,3.1-6.2l1.4-0.7L46,49.7
	c-0.5-1.4-0.8-2.9-0.8-4.3c0-0.2,0-0.4,0.1-0.5c0-0.2,0.1-0.5,0.1-0.6v-2.9l-1.8,2.2c-1.9,2.4-4.2,3.8-6.5,4c-0.2,0-0.3,0-0.5,0
	c-0.4,0-0.7-0.1-1-0.4c-0.4-0.4-0.7-0.8-0.7-1.3c-0.1-0.7,0-1,0.3-1.4c0.4-0.4,0.8-0.7,1.3-0.7c1.7-0.3,3.3-1.4,4.8-3.4
	c1.4-1.9,2.2-3.9,2.4-6.1l0-0.2l-0.1-0.4c-0.1-0.4-0.2-1-0.5-1.7c-0.5-1.8-0.6-2.8-0.4-3.6l0-0.1l0-0.1c0.1-0.5,0.2-0.8,0.7-1.1
	c0.4-0.3,0.7-0.4,1-0.4c0.1,0,0.2,0,0.2,0c0.5,0.1,0.9,0.3,1.3,0.7c0.2,0.2,0.3,0.3,0.3,0.4l0.1,0.2l0.2,0.2
	c0.3,0.3,0.7,0.7,1.2,1.2c0.8,0.7,1.7,1.6,2.8,2.8c0.9,0.9,1.8,1.5,2.8,1.9l0.2,0.1h0.1c0.4,0.1,0.9,0.1,1.3,0.1
	c1.2,0,2.2-0.4,2.9-1.3l0-0.1l0-0.1c0.7-1.1,1-2.4,1-3.9v-1.1l0-0.1c-0.1-0.2-0.1-0.4-0.2-0.7c-0.1-0.3-0.1-0.5-0.2-0.7l0,0
	c-0.5-1.7-1.4-3.3-2.6-4.6v-0.1l-0.2-0.3c-0.6-0.8-1.1-1.4-1.6-1.8c-3.4-3.6-7.1-5.4-11.3-5.5c-3.1,0.1-6.5,1.7-10.1,4.7
	c-3.9,3.3-6.9,9.4-8.7,18c-0.1,0.5-0.4,0.9-0.9,1.2c-0.2,0.2-0.6,0.4-1,0.4c-0.1,0-0.2,0-0.3,0c-0.6-0.2-1-0.4-1.3-0.9
	c-0.2-0.3-0.5-0.8-0.3-1.3c0.3-1.7,0.8-3.2,1.2-4.7l0.2-0.6l-0.4-0.4c-0.5-0.5-1.2-0.9-2-1l-0.1,0l-0.1,0c-2.4,0.1-4.5,1.8-6.1,5
	c-1.6,3.1-2.6,6.7-3,10.4c-0.5,3.8,0,7.6,1.4,11.2c0.9,2.3,2.6,3.8,5,4.5l1.2,0.4l0.1-1.2c0.1-1.1,0.4-2,0.9-2.9
	c0.3-0.5,0.6-0.8,1.2-1C19.7,55.5,19.8,55.5,20,55.5z M48.6,53.5c-0.6,0.1-0.9,0.3-1.3,0.6l-0.1,0.1c-0.9,0.7-1.3,1.8-1.3,3.1
	c0,2.9,1.5,5.2,4.4,7c2.7,1.6,5.6,2.4,8.7,2.4c2.7,0,5.2-0.8,7.2-2.3c2-1.5,3.1-3.4,3.2-5.4l0.1-1.5L68.1,58c-1.4,0.5-3,0.7-4.9,0.7
	c-1.6,0-3.3-0.2-5-0.5c-2.3-0.4-4.3-1.2-6.3-2.5c-0.2-0.1-0.3-0.2-0.4-0.3c-0.1,0-0.1-0.1-0.2-0.1c-0.1-0.1-0.2-0.2-0.4-0.3
	l-0.2-0.1c-0.4-0.3-0.8-0.6-1-0.9l-0.4-0.6L48.6,53.5z M54.8,41.1c-1.8,0-3.1,0.3-4.2,0.9l0,0l0,0c-1,0.7-1.5,1.8-1.5,3.2
	c0,2,0.6,3.6,1.8,4.9c0.4,0.5,1.1,1.1,2,1.8c0.2,0.1,0.3,0.2,0.5,0.3c0.1,0.1,0.2,0.1,0.4,0.2c1.6,1.1,3.4,1.8,5.3,2.1
	c1.2,0.3,2.6,0.5,4.1,0.5c1.9,0,3.7-0.4,5.5-1.2c0.1,0,0.1,0,0.2-0.1H69l0.2-0.2c0.1,0,0.2-0.1,0.3-0.1l0.6-0.3V53
	c0,0,0.1,0,0.1-0.1c0.2-0.2,0.4-0.3,0.6-0.4l0.1,0l0.1,0c0.1-0.1,0.3-0.2,0.4-0.3c0.1-0.1,0.3-0.2,0.4-0.3h0.3l0.4-0.4
	c0.9-0.9,1.4-2.2,1.4-3.9c-0.1-1.5-0.9-3.1-2.3-4.6l-0.4-0.4l-0.6,0.1c-1.2,0.3-2.6,0.5-4,0.6c-0.6,0.1-1.2,0.1-1.8,0.1
	c-1.5,0-3-0.2-4.6-0.5c-0.2-0.1-0.5-0.2-0.7-0.2c-0.1,0-0.2,0-0.3-0.1l-0.1,0c-0.1,0-0.2-0.1-0.3-0.1c-1-0.3-2.2-0.8-3.4-1.4
	L55,41.1H54.8z M60.9,39.1c1.3,0.3,2.7,0.5,4.1,0.5c0.4,0,0.9,0,1.3,0c1.4-0.1,2.7-0.3,4.1-0.7l1.4-0.3l0.1,0
	c1.5-0.6,2.8-1.3,3.8-2.2l0.1-0.1c0.2-0.1,0.3-0.2,0.4-0.3l0,0c0.2-0.1,0.4-0.2,0.6-0.5l0.3-0.3l0-0.1c2.3-2.3,3.4-4.1,3.5-6l0-0.1
	l0-0.1c-0.1-2-1.3-4-3.4-5.7c-2.7-2.3-5.8-3.4-9.3-3.4c-1.9,0-3.9,0.3-6,1l-1.1,0.4l0.5,1c0.5,1.1,0.9,2,1.2,2.8v1.1h1.4
	c0.3,0.1,1.4,0.5,4.4,1.8c0.5,0.2,0.7,0.5,1,1.1c0.1,0.2,0.2,0.8-0.1,1.4c-0.2,0.5-0.5,0.7-1.1,1c-0.1,0-0.3,0.1-0.5,0.1l0,0
	c-0.3,0-0.6-0.1-0.8-0.2C66,31,65.4,30.7,65,30.5c-0.3-0.2-0.6-0.3-0.9-0.4L63,29.7l-0.2,1.2c-0.3,1.8-0.9,3.1-1.6,4l-0.2,0.3v0.1
	c-0.5,0.7-1.2,1.2-2,1.6l-3.4,1.9h3.9c0,0,0.2,0.1,0.3,0.1l0.2,0.1h0.2c0,0,0.1,0,0.2,0C60.5,39.1,60.7,39.1,60.9,39.1z"/>
</svg>
